<svg version="1.1" id="Layer_1" xmlns="http://www.w3.org/2000/svg" xmlns:xlink="http://www.w3.org/1999/xlink" x="0px" y="0px"
	 width="100%" viewBox="0 0 1080 478" enable-background="new 0 0 1080 478" xml:space="preserve">
<path fill="none" opacity="1.000000" stroke="none" 
	d="
M642.000000,479.000000 
	C428.000000,479.000000 214.500000,479.000000 1.000000,479.000000 
	C1.000000,319.666656 1.000000,160.333328 1.000000,1.000000 
	C361.000000,1.000000 721.000000,1.000000 1081.000000,1.000000 
	C1081.000000,160.333328 1081.000000,319.666656 1081.000000,479.000000 
	C934.833313,479.000000 788.666687,479.000000 642.000000,479.000000 
M528.635986,287.943146 
	C528.943848,287.668365 529.251648,287.393585 530.252625,287.158783 
	C540.218567,282.125214 550.184448,277.091644 560.787292,271.999023 
	C561.869385,271.372894 562.951477,270.746796 564.666870,270.010620 
	C564.965454,269.716492 565.263977,269.422394 566.199585,269.116150 
	C567.464050,268.396545 568.728455,267.676941 570.586853,266.924744 
	C570.866699,266.658295 571.146606,266.391846 572.100464,266.020691 
	C594.073914,253.460739 616.036316,240.881378 638.034363,228.364700 
	C640.883118,226.743835 643.915894,225.446533 646.907532,224.935760 
	C646.907532,285.996613 646.907532,347.057495 646.907532,408.091644 
	C668.327698,408.091644 688.925720,408.091644 710.106445,408.091644 
	C710.106445,342.610809 710.106445,277.405792 710.106445,211.703064 
	C735.592041,211.703064 760.496460,211.703064 785.521484,211.703064 
	C785.521484,195.751862 785.521484,180.301178 785.760986,164.003235 
	C785.754700,161.332214 785.748474,158.661209 786.487854,155.761780 
	C791.332336,154.188705 796.176880,152.615646 801.704468,151.114548 
	C802.132629,150.967133 802.560791,150.819717 803.699402,150.766083 
	C805.465820,150.175598 807.232300,149.585114 809.687805,149.052338 
	C810.120361,148.904327 810.552917,148.756317 811.735718,148.681992 
	C814.698547,147.844559 817.661316,147.007141 821.088074,146.370789 
	C821.391968,146.240936 821.695923,146.111084 822.708252,146.077316 
	C823.814575,145.739578 824.920837,145.401825 826.756592,145.161758 
	C828.161499,144.822311 829.566345,144.482864 831.797913,144.255203 
	C834.188477,143.797928 836.578979,143.340637 839.519287,142.960205 
	C839.687012,142.882034 839.854736,142.803848 840.677673,142.726166 
	C841.082275,142.572998 841.486877,142.419830 842.510925,142.498978 
	C843.327148,142.269302 844.143311,142.039627 845.711365,141.863205 
	C846.437012,141.687592 847.162659,141.511978 848.546326,141.615021 
	C849.696594,141.363800 850.846924,141.112595 852.830505,140.912231 
	C854.186401,140.666351 855.542297,140.420471 857.545898,140.444458 
	C858.697327,140.207565 859.848755,139.970673 861.742676,139.791595 
	C862.457642,139.615585 863.172607,139.439575 864.692383,139.519775 
	C872.127441,138.917496 879.562561,138.315201 887.810425,137.786469 
	C888.873047,137.650543 889.935608,137.514618 891.806580,137.616226 
	C896.216553,137.452225 900.626526,137.288223 905.841187,137.411606 
	C909.891907,137.527435 913.942566,137.643265 918.781128,138.038193 
	C922.223328,138.128891 925.665527,138.219589 929.936646,138.544800 
	C931.953430,138.652771 933.970154,138.760742 936.482056,139.075867 
	C936.655396,139.031647 936.828735,138.987427 937.762146,139.090683 
	C939.542725,139.259415 941.323364,139.428131 943.875305,139.886200 
	C945.241577,139.955902 946.607910,140.025620 948.647949,140.497955 
	C953.850891,141.134979 959.053833,141.771988 964.256775,142.409012 
	C964.564026,141.856537 964.871277,141.304062 965.178528,140.751602 
	C964.003784,139.628372 962.997314,137.832901 961.627197,137.489822 
	C951.959045,135.068893 942.216064,132.946411 931.982300,130.241440 
	C930.632263,130.060043 929.282227,129.878647 927.202698,129.342758 
	C926.128967,129.249908 925.055298,129.157059 923.537415,128.707306 
	C922.995544,128.717667 922.453674,128.728027 921.318970,128.409714 
	C920.872192,128.384491 920.425415,128.359283 919.349731,128.005463 
	C918.208923,127.898926 917.068176,127.792389 915.249634,127.351883 
	C914.501404,127.286171 913.753174,127.220459 912.522156,126.925217 
	C912.347473,126.960388 912.172791,126.995567 911.297791,126.819595 
	C909.859924,126.639008 908.421997,126.458427 906.365112,125.928490 
	C905.219910,125.896194 904.074707,125.863899 902.158997,125.505722 
	C900.771240,125.395248 899.383545,125.284782 897.297974,124.912842 
	C895.838257,124.778839 894.378601,124.644836 892.302979,124.265411 
	C891.864075,124.274384 891.425110,124.283356 890.448547,124.037773 
	C890.250366,124.043289 890.052124,124.048798 889.223877,123.705551 
	C887.768982,123.687576 886.314026,123.669594 884.054077,123.390778 
	C882.359436,123.305443 880.664734,123.220100 878.395203,122.753983 
	C876.580811,122.768356 874.766357,122.782730 872.230408,122.619766 
	C871.495300,122.665451 870.760132,122.711143 869.584961,122.479713 
	C869.411682,122.485718 869.238342,122.491714 868.359741,122.147774 
	C863.565002,122.056862 858.770325,121.965950 853.113525,121.684357 
	C847.737732,121.643761 842.362000,121.603165 836.196533,121.307060 
	C833.805298,121.481895 831.414124,121.656723 828.188599,121.608337 
	C826.473816,121.683693 824.759094,121.759041 822.317810,121.568176 
	C817.517212,121.879189 812.716614,122.190201 807.138184,122.452232 
	C806.109558,122.567886 805.080994,122.683540 803.525818,122.483452 
	C802.356018,122.677826 801.186218,122.872192 799.283569,122.985664 
	C797.850525,123.199051 796.417542,123.412430 794.197815,123.454964 
	C793.140076,123.597130 792.082275,123.739288 790.519714,123.577705 
	C789.351196,123.801987 788.182617,124.026268 786.338257,124.169441 
	C785.233337,124.414337 784.128418,124.659233 782.580200,124.628990 
	C781.722900,124.812271 780.865601,124.995560 779.170166,125.114983 
	C777.807312,125.364235 776.444519,125.613487 774.441895,125.586372 
	C773.302795,125.827095 772.163635,126.067825 770.467468,126.228996 
	C769.963440,126.432632 769.459473,126.636276 768.216736,126.722122 
	C767.492188,126.877975 766.767578,127.033836 765.337280,127.100609 
	C764.895447,127.252655 764.453613,127.404709 763.243896,127.418953 
	C756.571716,128.682816 749.792603,129.545700 743.248962,131.291275 
	C728.071594,135.339890 713.008118,139.815002 697.316162,144.108627 
	C697.018250,144.343002 696.720398,144.577393 695.785828,144.702332 
	C694.816223,145.080948 693.846619,145.459549 692.204468,145.840607 
	C691.628906,146.164429 691.053284,146.488251 690.161133,146.740280 
	C690.161133,146.740280 689.940308,146.978149 689.310974,146.961441 
	C688.768005,147.241531 688.224976,147.521606 687.247620,147.775986 
	C687.247620,147.775986 686.904907,148.044189 686.285645,148.042648 
	C685.974915,148.294235 685.664185,148.545837 684.650391,148.703461 
	C682.065735,149.769272 679.481140,150.835083 676.266907,151.885071 
	C675.748474,152.201828 675.230042,152.518585 674.166199,152.874741 
	C673.702637,153.145187 673.239075,153.415634 672.126587,153.723572 
	C671.262634,154.306458 670.398682,154.889343 668.971619,155.515457 
	C668.635254,155.669510 668.298828,155.823563 667.031250,155.914352 
	C635.201233,155.914352 603.371277,155.914352 571.204956,155.914352 
	C571.204956,175.091522 571.204956,193.505936 570.522034,212.125229 
	C565.986084,215.314682 561.450134,218.504135 556.317871,221.809967 
	C555.886475,222.209061 555.455078,222.608154 554.541687,223.056442 
	C554.200745,223.161362 553.986450,223.386719 553.210571,223.887695 
	C543.144470,230.613785 533.078369,237.339890 522.477478,244.146072 
	C522.244019,244.408356 522.010498,244.670639 521.137634,245.027573 
	C519.755066,246.007828 518.372559,246.988083 516.429016,248.069504 
	C516.184448,248.349533 515.939880,248.629578 515.159668,248.924622 
	C514.759338,249.244308 514.359009,249.563995 513.325623,249.971725 
	C512.516418,250.624420 511.707245,251.277115 510.986298,251.970566 
	C510.986298,251.970566 510.935028,251.888000 510.342346,251.943146 
	C509.902100,252.311844 509.461853,252.680557 508.373657,253.002686 
	C507.941010,252.997574 507.508331,252.992462 506.809448,252.303497 
	C494.840332,221.603821 482.815399,190.925613 470.986908,160.171860 
	C469.779297,157.032089 468.424103,155.901672 464.968323,155.929565 
	C442.482635,156.111038 419.994263,156.094467 397.508118,155.944199 
	C394.193848,155.922043 392.570404,156.776474 391.318268,160.022354 
	C374.009644,204.891373 356.570709,249.710297 339.087708,294.511841 
	C333.530731,308.751984 327.750305,322.904907 321.261932,337.062012 
	C306.849426,340.424561 292.444061,343.818176 278.019592,347.128510 
	C274.275909,347.987640 275.043121,350.228424 275.682526,352.587036 
	C279.190216,352.587036 282.350525,352.784729 285.478607,352.551056 
	C296.091644,351.758270 306.693268,350.812958 317.142426,350.677856 
	C309.774475,369.693665 302.406555,388.709473 294.787659,408.372986 
	C297.067169,408.372986 298.539032,408.373016 300.010895,408.372986 
	C319.005188,408.372650 338.000397,408.277252 356.993011,408.456421 
	C360.556183,408.490051 362.175690,407.454376 363.418182,404.016510 
	C371.506409,381.637390 379.864838,359.355927 388.913483,337.041443 
	C400.627167,334.005890 412.421234,331.245178 424.029663,327.849640 
	C433.681580,325.026398 443.115204,321.456818 453.082825,318.494354 
	C453.389435,318.362183 453.696045,318.230011 454.670166,318.125366 
	C455.450439,317.759949 456.230713,317.394531 457.664429,317.057648 
	C458.443115,316.694641 459.221832,316.331665 460.725037,316.010895 
	C462.027191,315.405365 463.329315,314.799805 464.751709,314.327515 
	C464.751709,314.327515 464.923248,314.274719 465.655212,314.235657 
	C466.271515,313.875366 466.887817,313.515076 468.198029,313.191437 
	C470.135315,312.450226 472.072571,311.709015 474.628906,311.008728 
	C475.134003,310.691498 475.639099,310.374268 476.887329,310.025482 
	C484.666565,306.760712 492.445801,303.495941 500.163635,300.294525 
	C500.163635,300.294525 500.245331,300.327850 500.978027,300.301880 
	C503.859802,298.925293 506.741577,297.548676 509.803223,296.313293 
	C509.803223,296.313293 510.002899,296.201843 510.677307,296.183990 
	C511.440765,295.764069 512.204224,295.344147 513.565186,294.943787 
	C514.040283,294.618530 514.515320,294.293274 515.582397,293.989807 
	C516.064270,293.681854 516.546082,293.373901 517.618469,293.087708 
	C518.103516,292.791931 518.588623,292.496124 519.668884,292.164154 
	C520.140930,291.838684 520.612976,291.513214 521.776001,291.119415 
	C523.186340,290.416901 524.596619,289.714355 526.608704,289.016541 
	C527.080688,288.682739 527.552612,288.348938 528.002502,287.996948 
	C528.002502,287.996948 528.008240,288.024078 528.635986,287.943146 
M124.922905,408.722382 
	C132.496811,409.814941 140.049820,411.651489 147.648407,411.864899 
	C173.647217,412.595062 199.639252,412.173889 225.390274,407.873230 
	C239.289093,405.551971 253.140671,402.947815 266.857605,400.499115 
	C266.857605,318.350891 266.857605,237.312027 266.857605,156.253418 
	C245.728058,156.253418 224.956787,156.253418 203.727859,156.253418 
	C203.727859,158.428009 203.727844,160.378983 203.727844,162.329971 
	C203.727859,221.490005 203.727966,280.650024 203.727600,339.810059 
	C203.727570,344.309540 203.931976,348.824921 203.590576,353.298462 
	C203.493347,354.572327 201.884277,356.700226 200.834274,356.785553 
	C186.583817,357.943970 172.288422,359.808075 158.046692,359.503967 
	C139.306107,359.103821 127.324249,349.614990 122.273270,331.640442 
	C119.699181,322.480225 118.669518,312.622589 118.596298,303.067535 
	C118.236229,256.075562 118.431061,209.079346 118.429970,162.084625 
	C118.429924,160.167480 118.429955,158.250336 118.429955,156.391815 
	C96.866920,156.391815 75.982933,156.391815 55.036098,156.391815 
	C55.036098,212.751541 54.775860,268.744598 55.183807,324.732788 
	C55.318172,343.174011 60.187855,360.662079 71.311325,375.880737 
	C84.483215,393.901978 102.984520,403.344940 124.922905,408.722382 
M839.694702,325.499908 
	C839.694702,352.938416 839.694702,380.376923 839.694702,408.004608 
	C861.070923,408.004608 881.923889,408.004608 903.332642,408.004608 
	C903.332642,383.430847 903.332642,359.220520 903.332642,335.097595 
	C906.711426,335.097595 909.535461,335.002930 912.351562,335.112762 
	C932.769409,335.908905 952.985474,335.067566 972.485168,328.043823 
	C998.842957,318.549835 1017.411865,301.440277 1025.728394,274.090668 
	C1029.586548,261.402313 1029.510864,248.387543 1028.895752,235.439468 
	C1027.690918,210.077072 1018.155701,188.556458 997.533569,172.862427 
	C978.631348,158.477280 956.502991,152.602982 933.414246,152.309006 
	C909.157654,152.000214 884.862000,154.020370 860.600281,155.334106 
	C853.702148,155.707657 846.862854,157.167496 839.694641,158.171448 
	C839.694641,213.927521 839.694641,269.213684 839.694702,325.499908 
M469.341248,327.526245 
	C478.407043,353.098419 487.545319,378.645355 496.449890,404.273560 
	C497.606812,407.603424 499.217072,408.473969 502.555023,408.448730 
	C522.546631,408.297333 542.539978,408.379211 562.532715,408.362518 
	C563.954163,408.361328 565.375427,408.197296 567.422546,408.070129 
	C553.646301,372.691223 540.088013,337.872040 526.414917,302.758057 
	C521.255676,305.062958 516.616211,307.246887 511.890900,309.225769 
	C497.789612,315.131195 483.654663,320.956207 469.341248,327.526245 
M1017.909851,125.512253 
	C1011.341858,120.970726 1004.541565,120.599335 997.799500,124.881104 
	C991.882141,128.639145 989.494873,134.334442 990.475464,141.204941 
	C991.551392,148.743881 996.865295,153.992630 1004.128845,155.193085 
	C1012.099976,156.510468 1019.100708,153.184540 1022.629761,146.403717 
	C1026.076050,139.781921 1024.532471,132.145340 1017.909851,125.512253 
z"/>
<path fill="#0A2F1D" opacity="1.000000" stroke="none" 
	d="
M124.529190,408.592010 
	C102.984520,403.344940 84.483215,393.901978 71.311325,375.880737 
	C60.187855,360.662079 55.318172,343.174011 55.183807,324.732788 
	C54.775860,268.744598 55.036098,212.751541 55.036098,156.391815 
	C75.982933,156.391815 96.866920,156.391815 118.429955,156.391815 
	C118.429955,158.250336 118.429924,160.167480 118.429970,162.084625 
	C118.431061,209.079346 118.236229,256.075562 118.596298,303.067535 
	C118.669518,312.622589 119.699181,322.480225 122.273270,331.640442 
	C127.324249,349.614990 139.306107,359.103821 158.046692,359.503967 
	C172.288422,359.808075 186.583817,357.943970 200.834274,356.785553 
	C201.884277,356.700226 203.493347,354.572327 203.590576,353.298462 
	C203.931976,348.824921 203.727570,344.309540 203.727600,339.810059 
	C203.727966,280.650024 203.727859,221.490005 203.727844,162.329971 
	C203.727844,160.378983 203.727859,158.428009 203.727859,156.253418 
	C224.956787,156.253418 245.728058,156.253418 266.857605,156.253418 
	C266.857605,237.312027 266.857605,318.350891 266.857605,400.499115 
	C253.140671,402.947815 239.289093,405.551971 225.390274,407.873230 
	C199.639252,412.173889 173.647217,412.595062 147.648407,411.864899 
	C140.049820,411.651489 132.496811,409.814941 124.529190,408.592010 
z"/>
<path fill="#0B2F1D" opacity="1.000000" stroke="none" 
	d="
M839.694702,324.999878 
	C839.694641,269.213684 839.694641,213.927521 839.694641,158.171448 
	C846.862854,157.167496 853.702148,155.707657 860.600281,155.334106 
	C884.862000,154.020370 909.157654,152.000214 933.414246,152.309006 
	C956.502991,152.602982 978.631348,158.477280 997.533569,172.862427 
	C1018.155701,188.556458 1027.690918,210.077072 1028.895752,235.439468 
	C1029.510864,248.387543 1029.586548,261.402313 1025.728394,274.090668 
	C1017.411865,301.440277 998.842957,318.549835 972.485168,328.043823 
	C952.985474,335.067566 932.769409,335.908905 912.351562,335.112762 
	C909.535461,335.002930 906.711426,335.097595 903.332642,335.097595 
	C903.332642,359.220520 903.332642,383.430847 903.332642,408.004608 
	C881.923889,408.004608 861.070923,408.004608 839.694702,408.004608 
	C839.694702,380.376923 839.694702,352.938416 839.694702,324.999878 
M951.019653,274.584991 
	C969.546082,263.729614 968.172913,234.228928 959.011475,223.004501 
	C953.008972,215.650253 945.244507,211.801300 936.178711,209.870377 
	C925.151855,207.521790 914.233826,208.311142 903.393433,209.729767 
	C903.393433,233.702530 903.393433,256.925964 903.393433,281.170685 
	C911.126282,281.170685 918.569153,281.255096 926.009277,281.148529 
	C934.608765,281.025360 942.854614,279.360718 951.019653,274.584991 
z"/>
<path fill="#0A2F1D" opacity="1.000000" stroke="none" 
	d="
M571.204956,211.920334 
	C571.204956,193.505936 571.204956,175.091522 571.204956,155.914352 
	C603.371277,155.914352 635.201233,155.914352 667.794922,156.244507 
	C670.360962,156.718231 672.163391,156.985733 673.965881,156.986984 
	C708.833984,157.011322 743.702026,157.004532 778.570129,157.004135 
	C780.514709,157.004120 782.459351,157.004135 784.559631,157.004135 
	C784.928711,160.014999 785.225098,162.432739 785.521484,164.850494 
	C785.521484,180.301178 785.521484,195.751862 785.521484,211.703064 
	C760.496460,211.703064 735.592041,211.703064 710.106445,211.703064 
	C710.106445,277.405792 710.106445,342.610809 710.106445,408.091644 
	C688.925720,408.091644 668.327698,408.091644 646.907532,408.091644 
	C646.907532,347.057495 646.907532,285.996613 646.973145,224.017242 
	C647.038696,219.523209 647.038696,215.947693 647.038696,211.920334 
	C621.187134,211.920334 596.196045,211.920334 571.204956,211.920334 
z"/>
<path fill="#0B301E" opacity="1.000000" stroke="none" 
	d="
M388.134827,337.042480 
	C379.864838,359.355927 371.506409,381.637390 363.418182,404.016510 
	C362.175690,407.454376 360.556183,408.490051 356.993011,408.456421 
	C338.000397,408.277252 319.005188,408.372650 300.010895,408.372986 
	C298.539032,408.373016 297.067169,408.372986 294.787659,408.372986 
	C302.406555,388.709473 309.774475,369.693665 317.481079,350.082764 
	C319.237183,345.357727 320.654633,341.227722 322.072113,337.097748 
	C327.750305,322.904907 333.530731,308.751984 339.087708,294.511841 
	C356.570709,249.710297 374.009644,204.891373 391.318268,160.022354 
	C392.570404,156.776474 394.193848,155.922043 397.508118,155.944199 
	C419.994263,156.094467 442.482635,156.111038 464.968323,155.929565 
	C468.424103,155.901672 469.779297,157.032089 470.986908,160.171860 
	C482.815399,190.925613 494.840332,221.603821 506.851929,252.957764 
	C505.949768,254.483475 505.005096,255.354935 503.755981,256.295410 
	C502.282440,257.210022 501.113434,258.055634 499.651184,258.940735 
	C498.907288,259.332703 498.456635,259.685150 497.742920,260.103516 
	C497.228729,260.423004 496.977570,260.676636 496.432556,261.018280 
	C495.428467,261.507629 494.718201,261.908936 493.688812,262.390564 
	C481.532501,269.198303 469.721008,275.971985 457.818787,282.582336 
	C456.615082,283.250824 454.863953,282.933563 453.217712,282.695129 
	C445.862549,261.882568 438.656494,241.448685 431.450439,221.014786 
	C431.078491,221.044800 430.706512,221.074799 430.334564,221.104813 
	C419.505829,250.862778 408.677094,280.620728 397.615112,310.627411 
	C394.299561,319.598236 391.217194,328.320343 388.134827,337.042480 
z"/>
<path fill="#0C301E" opacity="1.000000" stroke="none" 
	d="
M469.437073,327.169434 
	C483.654663,320.956207 497.789612,315.131195 511.890900,309.225769 
	C516.616211,307.246887 521.255676,305.062958 526.414917,302.758057 
	C540.088013,337.872040 553.646301,372.691223 567.422546,408.070129 
	C565.375427,408.197296 563.954163,408.361328 562.532715,408.362518 
	C542.539978,408.379211 522.546631,408.297333 502.555023,408.448730 
	C499.217072,408.473969 497.606812,407.603424 496.449890,404.273560 
	C487.545319,378.645355 478.407043,353.098419 469.437073,327.169434 
z"/>
<path fill="#58B44C" opacity="1.000000" stroke="none" 
	d="
M570.863525,212.022781 
	C596.196045,211.920334 621.187134,211.920334 647.038696,211.920334 
	C647.038696,215.947693 647.038696,219.523209 646.951050,223.549042 
	C643.915894,225.446533 640.883118,226.743835 638.034363,228.364700 
	C616.036316,240.881378 594.073914,253.460739 571.472046,266.109375 
	C570.560120,266.451172 570.276489,266.704254 569.992920,266.957336 
	C568.728455,267.676941 567.464050,268.396545 565.557373,269.169617 
	C564.621277,269.522278 564.327454,269.821503 564.033569,270.120697 
	C562.951477,270.746796 561.869385,271.372894 560.039429,272.008423 
	C557.508057,272.245239 555.608154,272.156982 553.964050,272.762726 
	C549.958313,274.238586 548.239075,272.970795 548.560852,268.746643 
	C548.895142,264.358978 548.519653,259.884094 549.198669,255.564346 
	C550.010315,250.400436 550.912781,245.373703 549.074890,240.266647 
	C548.895691,239.768784 549.352234,239.042191 549.559631,238.245438 
	C551.275757,238.411209 552.826538,238.561005 554.648071,238.736954 
	C555.109192,235.836349 555.483704,233.507309 551.779358,232.952179 
	C550.834595,232.810593 550.002502,231.917435 549.118652,231.369568 
	C549.884521,230.478577 550.789978,229.671097 551.384338,228.677521 
	C552.331299,227.094315 553.071228,225.387207 553.898743,223.732513 
	C553.986450,223.386719 554.200745,223.161362 555.099609,222.999634 
	C556.076416,222.526428 556.495300,222.110031 556.914185,221.693604 
	C561.450134,218.504135 565.986084,215.314682 570.863525,212.022781 
z"/>
<path fill="#61B84B" opacity="1.000000" stroke="none" 
	d="
M553.554688,223.810089 
	C553.071228,225.387207 552.331299,227.094315 551.384338,228.677521 
	C550.789978,229.671097 549.884521,230.478577 549.118652,231.369568 
	C550.002502,231.917435 550.834595,232.810593 551.779358,232.952179 
	C555.483704,233.507309 555.109192,235.836349 554.648071,238.736954 
	C552.826538,238.561005 551.275757,238.411209 549.559631,238.245438 
	C549.352234,239.042191 548.895691,239.768784 549.074890,240.266647 
	C550.912781,245.373703 550.010315,250.400436 549.198669,255.564346 
	C548.519653,259.884094 548.895142,264.358978 548.560852,268.746643 
	C548.239075,272.970795 549.958313,274.238586 553.964050,272.762726 
	C555.608154,272.156982 557.508057,272.245239 559.720947,272.037964 
	C550.184448,277.091644 540.218567,282.125214 529.589233,287.180389 
	C528.619934,287.476013 528.314087,287.750031 528.008240,288.024048 
	C528.008240,288.024078 528.002502,287.996948 527.711731,288.019470 
	C526.949646,288.365265 526.478333,288.688538 526.006958,289.011841 
	C524.596619,289.714355 523.186340,290.416901 521.259766,290.893860 
	C520.186951,291.178986 519.630310,291.689667 519.073669,292.200378 
	C518.588623,292.496124 518.103516,292.791931 517.159058,292.838867 
	C516.129944,293.049347 515.560181,293.508667 514.990417,293.968018 
	C514.515320,294.293274 514.040283,294.618530 513.052246,294.686035 
	C511.693787,295.019501 510.848358,295.610687 510.002899,296.201843 
	C510.002899,296.201843 509.803223,296.313293 509.247925,296.197144 
	C505.073792,295.899323 501.372986,295.554504 500.245331,300.327850 
	C500.245331,300.327850 500.163635,300.294525 499.754486,300.185669 
	C495.221954,300.498505 493.689819,298.662354 493.936188,294.545227 
	C494.214050,289.901733 493.999023,285.228882 494.000214,280.568787 
	C494.001801,274.482605 494.005280,268.396454 494.007935,262.310272 
	C494.718201,261.908936 495.428467,261.507629 496.700623,260.956421 
	C497.510315,260.550201 497.758118,260.293884 498.005981,260.037598 
	C498.456635,259.685150 498.907288,259.332703 499.885559,259.227722 
	C503.223206,260.182129 506.134644,261.002869 504.060455,256.226379 
	C505.005096,255.354935 505.949768,254.483475 506.985046,253.299698 
	C507.508331,252.992462 507.941010,252.997574 508.878815,253.249359 
	C509.900970,252.960037 510.417999,252.424011 510.935028,251.888000 
	C510.935028,251.888000 510.986298,251.970566 511.312500,251.968582 
	C512.411987,251.272293 513.185303,250.577972 513.958618,249.883667 
	C514.359009,249.563995 514.759338,249.244308 515.704834,248.856812 
	C516.496704,248.515442 516.743347,248.241898 516.989990,247.968353 
	C518.372559,246.988083 519.755066,246.007828 521.714478,244.918594 
	C522.531555,244.561722 522.771912,244.313843 523.012268,244.065979 
	C533.078369,237.339890 543.144470,230.613785 553.554688,223.810089 
z"/>
<path fill="#66B94B" opacity="1.000000" stroke="none" 
	d="
M493.688812,262.390564 
	C494.005280,268.396454 494.001801,274.482605 494.000214,280.568787 
	C493.999023,285.228882 494.214050,289.901733 493.936188,294.545227 
	C493.689819,298.662354 495.221954,300.498505 499.785187,300.153992 
	C492.445801,303.495941 484.666565,306.760712 476.203766,310.037170 
	C475.016754,310.355194 474.513306,310.661499 474.009857,310.967773 
	C472.072571,311.709015 470.135315,312.450226 467.464844,313.149200 
	C466.128845,313.496216 465.526062,313.885468 464.923248,314.274719 
	C464.923248,314.274719 464.751709,314.327515 464.265320,314.209412 
	C462.519470,314.717102 461.260010,315.342865 460.000519,315.968658 
	C459.221832,316.331665 458.443115,316.694641 457.136932,316.781189 
	C455.740509,317.035736 454.871582,317.566803 454.002655,318.097839 
	C453.696045,318.230011 453.389435,318.362183 452.399719,318.287476 
	C450.811279,316.666779 449.201202,315.289856 449.124786,313.832550 
	C448.822266,308.063293 448.995209,302.268860 449.001282,296.483765 
	C449.005249,292.690369 448.236145,288.673981 452.150330,285.651154 
	C452.669250,284.602875 453.018066,283.838348 453.366852,283.073792 
	C454.863953,282.933563 456.615082,283.250824 457.818787,282.582336 
	C469.721008,275.971985 481.532501,269.198303 493.688812,262.390564 
z"/>
<path fill="#6FBB4B" opacity="1.000000" stroke="none" 
	d="
M451.980255,285.934875 
	C448.236145,288.673981 449.005249,292.690369 449.001282,296.483765 
	C448.995209,302.268860 448.822266,308.063293 449.124786,313.832550 
	C449.201202,315.289856 450.811279,316.666779 452.181030,318.149231 
	C443.115204,321.456818 433.681580,325.026398 424.029663,327.849640 
	C412.421234,331.245178 400.627167,334.005890 388.524170,337.041962 
	C391.217194,328.320343 394.299561,319.598236 398.009216,310.539490 
	C403.394897,308.281769 408.244598,306.557709 412.894257,304.402100 
	C425.967010,298.341461 438.957367,292.103119 451.980255,285.934875 
z"/>
<path fill="#3FAF4F" opacity="1.000000" stroke="none" 
	d="
M768.955444,126.839912 
	C769.459473,126.636276 769.963440,126.432632 770.965576,126.472687 
	C772.669678,126.431831 773.875671,126.147285 775.081665,125.862732 
	C776.444519,125.613487 777.807312,125.364235 779.801880,125.365097 
	C781.296936,125.378174 782.160217,125.141144 783.023499,124.904121 
	C784.128418,124.659233 785.233337,124.414337 786.919800,124.435165 
	C788.675720,124.427742 789.850098,124.154602 791.024536,123.881454 
	C792.082275,123.739288 793.140076,123.597130 794.592407,123.966248 
	C794.355469,127.509430 792.683594,130.786209 793.326721,133.518051 
	C794.393433,138.049637 794.025269,141.507095 790.521667,143.883942 
	C791.747437,150.191147 797.155273,149.372559 801.021362,151.042572 
	C796.176880,152.615646 791.332336,154.188705 785.819702,155.945007 
	C784.755127,156.048615 784.358765,155.969009 783.653076,155.620987 
	C769.230835,155.239838 755.117859,155.127106 741.003296,154.545593 
	C740.959045,149.111771 741.879578,143.886765 740.627869,139.247879 
	C739.087463,133.538651 742.735413,132.939606 746.004700,132.140411 
	C750.578613,131.022263 755.364929,130.800430 760.002136,129.896439 
	C761.436218,129.616867 762.680542,128.363998 764.011780,127.556763 
	C764.453613,127.404709 764.895447,127.252655 765.900391,127.366081 
	C767.294128,127.367676 768.124756,127.103790 768.955444,126.839912 
z"/>
<path fill="#29AA52" opacity="1.000000" stroke="none" 
	d="
M913.004944,127.154739 
	C913.753174,127.220459 914.501404,127.286171 915.711609,127.786537 
	C917.441956,128.258820 918.710266,128.296432 919.978638,128.334045 
	C920.425415,128.359283 920.872192,128.384491 921.704651,128.798157 
	C922.720764,129.145798 923.351135,129.104996 923.981567,129.064209 
	C925.055298,129.157059 926.128967,129.249908 927.742432,129.821686 
	C929.687134,130.443314 931.092041,130.585983 932.497009,130.728668 
	C942.216064,132.946411 951.959045,135.068893 961.627197,137.489822 
	C962.997314,137.832901 964.003784,139.628372 965.178528,140.751602 
	C964.871277,141.304062 964.564026,141.856537 964.256775,142.409012 
	C959.053833,141.771988 953.850891,141.134979 948.119568,140.016479 
	C946.095459,139.555634 944.599670,139.576248 943.103943,139.596863 
	C941.323364,139.428131 939.542725,139.259415 937.299194,138.856552 
	C936.553162,138.704529 936.270081,138.786636 935.986938,138.868713 
	C933.970154,138.760742 931.953430,138.652771 929.325134,138.125473 
	C925.140198,137.723785 921.566711,137.741440 917.993286,137.759094 
	C913.942566,137.643265 909.891907,137.527435 905.161865,136.948868 
	C899.987793,136.783661 895.493042,137.081177 890.998230,137.378693 
	C889.935608,137.514618 888.873047,137.650543 887.082947,137.512970 
	C883.260559,137.173462 880.165710,137.107437 876.792542,137.037109 
	C876.039673,137.260727 875.565125,137.488663 874.684937,137.767700 
	C873.190796,137.834320 872.102234,137.849823 870.940125,137.518311 
	C868.110474,136.427917 865.354431,135.684509 861.871765,134.745132 
	C862.218506,131.481552 862.613037,127.768646 863.439209,124.038132 
	C865.600952,124.015907 867.330933,124.011292 869.288696,123.857025 
	C869.685913,123.390533 869.855469,123.073677 870.025024,122.756836 
	C870.760132,122.711143 871.495300,122.665451 872.812744,123.007904 
	C875.253479,123.308952 877.111755,123.221855 878.970093,123.134766 
	C880.664734,123.220100 882.359436,123.305443 884.442566,123.635208 
	C884.831055,123.879646 884.903259,124.098213 885.180725,124.332733 
	C887.300842,124.475616 889.143555,124.383972 890.986206,124.292328 
	C891.425110,124.283356 891.864075,124.274384 892.728394,124.693108 
	C894.767822,125.138641 896.381836,125.156479 897.995789,125.174316 
	C899.383545,125.284782 900.771240,125.395248 902.689209,125.919128 
	C904.474365,126.314301 905.729248,126.296082 906.984131,126.277847 
	C908.421997,126.458427 909.859924,126.639008 911.722656,127.094528 
	C912.433350,127.297890 912.719177,127.226311 913.004944,127.154739 
z"/>
<path fill="#49B151" opacity="1.000000" stroke="none" 
	d="
M763.627808,127.487854 
	C762.680542,128.363998 761.436218,129.616867 760.002136,129.896439 
	C755.364929,130.800430 750.578613,131.022263 746.004700,132.140411 
	C742.735413,132.939606 739.087463,133.538651 740.627869,139.247879 
	C741.879578,143.886765 740.959045,149.111771 740.534119,154.550079 
	C719.473938,155.023697 698.881348,155.058044 678.289185,154.966324 
	C676.449402,154.958130 674.613342,154.132217 672.775513,153.686096 
	C673.239075,153.415634 673.702637,153.145187 674.766846,152.882996 
	C675.877136,152.561127 676.386780,152.231033 676.896484,151.900909 
	C679.481140,150.835083 682.065735,149.769272 685.313110,148.741867 
	C686.285583,148.534912 686.595215,148.289551 686.904907,148.044189 
	C686.904907,148.044189 687.247620,147.775986 687.791870,147.825974 
	C688.870911,147.576691 689.405579,147.277420 689.940308,146.978149 
	C689.940308,146.978149 690.161133,146.740280 690.681396,146.806488 
	C691.760071,146.527847 692.318542,146.182999 692.877014,145.838135 
	C693.846619,145.459549 694.816223,145.080948 696.397400,144.748642 
	C697.305420,144.569031 697.601929,144.343094 697.898438,144.117188 
	C713.008118,139.815002 728.071594,135.339890 743.248962,131.291275 
	C749.792603,129.545700 756.571716,128.682816 763.627808,127.487854 
z"/>
<path fill="#36AD4D" opacity="1.000000" stroke="none" 
	d="
M801.362915,151.078552 
	C797.155273,149.372559 791.747437,150.191147 790.521667,143.883942 
	C794.025269,141.507095 794.393433,138.049637 793.326721,133.518051 
	C792.683594,130.786209 794.355469,127.509430 794.985779,124.051666 
	C796.417542,123.412430 797.850525,123.199051 799.881470,123.286095 
	C801.634155,123.709503 802.788818,123.832474 804.346863,123.972015 
	C805.821289,123.998466 806.892334,124.008347 808.427856,124.033440 
	C813.567871,123.673500 818.243530,123.298355 823.337585,122.949478 
	C825.511597,122.594353 827.267273,122.212952 829.022888,121.831551 
	C831.414124,121.656723 833.805298,121.481895 836.580872,121.788666 
	C835.664246,123.190788 834.328613,124.066864 833.072998,125.045563 
	C832.023987,125.863205 830.287048,126.737839 830.209656,127.696632 
	C829.906982,131.445557 829.849548,135.277405 830.351074,138.990616 
	C830.506042,140.138016 832.726868,141.006409 833.806152,142.257782 
	C832.730774,143.056458 831.851013,143.599915 830.971252,144.143387 
	C829.566345,144.482864 828.161499,144.822311 826.177490,144.837296 
	C824.398926,145.002304 823.199341,145.491776 821.999817,145.981232 
	C821.695923,146.111084 821.391968,146.240936 820.377441,146.223709 
	C816.726074,146.759430 812.768433,143.955276 810.985474,148.608292 
	C810.552917,148.756317 810.120361,148.904327 809.110352,148.753387 
	C806.095886,147.721512 803.808655,147.362762 802.988953,150.672302 
	C802.560791,150.819717 802.132629,150.967133 801.362915,151.078552 
z"/>
<path fill="#32AC51" opacity="1.000000" stroke="none" 
	d="
M834.001770,142.002563 
	C832.726868,141.006409 830.506042,140.138016 830.351074,138.990616 
	C829.849548,135.277405 829.906982,131.445557 830.209656,127.696632 
	C830.287048,126.737839 832.023987,125.863205 833.072998,125.045563 
	C834.328613,124.066864 835.664246,123.190788 836.975708,121.916420 
	C842.362000,121.603165 847.737732,121.643761 853.789795,122.068314 
	C857.313232,122.986763 860.160339,123.521248 863.007568,124.055733 
	C862.613037,127.768646 862.218506,131.481552 861.871765,134.745132 
	C865.354431,135.684509 868.110474,136.427917 870.535278,137.565430 
	C868.098511,138.394226 865.993042,138.828888 863.887573,139.263550 
	C863.172607,139.439575 862.457642,139.615585 861.151794,139.551956 
	C859.340027,139.599731 858.119080,139.887146 856.898193,140.174591 
	C855.542297,140.420471 854.186401,140.666351 852.198181,140.661774 
	C850.340027,140.719650 849.114136,141.028000 847.888306,141.336365 
	C847.162659,141.511978 846.437012,141.687592 845.174988,141.617493 
	C844.114258,141.260330 843.589905,141.148880 842.862061,141.096298 
	C842.396118,141.282471 842.201233,141.477325 842.003052,141.862762 
	C841.932312,141.985779 841.891479,142.266663 841.891479,142.266663 
	C841.486877,142.419830 841.082275,142.572998 840.234009,142.555038 
	C839.572327,142.206924 839.325745,142.090378 838.629883,142.023773 
	C836.806763,142.009705 835.404236,142.006134 834.001770,142.002563 
z"/>
<path fill="#81BF54" opacity="1.000000" stroke="none" 
	d="
M321.667023,337.079895 
	C320.654633,341.227722 319.237183,345.357727 317.559479,349.706818 
	C306.693268,350.812958 296.091644,351.758270 285.478607,352.551056 
	C282.350525,352.784729 279.190216,352.587036 275.682526,352.587036 
	C275.043121,350.228424 274.275909,347.987640 278.019592,347.128510 
	C292.444061,343.818176 306.849426,340.424561 321.667023,337.079895 
z"/>
<path fill="#294537" opacity="1.000000" stroke="none" 
	d="
M1018.202515,125.730133 
	C1024.532471,132.145340 1026.076050,139.781921 1022.629761,146.403717 
	C1019.100708,153.184540 1012.099976,156.510468 1004.128845,155.193085 
	C996.865295,153.992630 991.551392,148.743881 990.475464,141.204941 
	C989.494873,134.334442 991.882141,128.639145 997.799500,124.881104 
	C1004.541565,120.599335 1011.341858,120.970726 1018.202515,125.730133 
M998.972656,128.047058 
	C993.172119,133.743271 992.276062,141.581741 996.767212,147.339767 
	C1001.125916,152.928055 1008.243652,153.931061 1015.633240,149.690964 
	C1021.792908,143.367584 1022.496887,135.509766 1017.428406,129.655350 
	C1012.818237,124.330444 1005.789429,123.597694 998.972656,128.047058 
z"/>
<path fill="#003F0C" opacity="1.000000" stroke="none" 
	d="
M783.962402,155.889389 
	C784.358765,155.969009 784.755127,156.048615 785.446899,156.059204 
	C785.748474,158.661209 785.754700,161.332214 785.641235,164.426865 
	C785.225098,162.432739 784.928711,160.014999 784.559631,157.004135 
	C782.459351,157.004135 780.514709,157.004120 778.570129,157.004135 
	C743.702026,157.004532 708.833984,157.011322 673.965881,156.986984 
	C672.163391,156.985733 670.360962,156.718231 668.260498,156.276154 
	C668.298828,155.823563 668.635254,155.669510 669.717346,155.699860 
	C708.296204,155.885986 746.129272,155.887680 783.962402,155.889389 
z"/>
<path fill="#568B60" opacity="1.000000" stroke="none" 
	d="
M783.653076,155.620987 
	C746.129272,155.887680 708.296204,155.885986 669.998901,155.678253 
	C670.398682,154.889343 671.262634,154.306458 672.451050,153.704834 
	C674.613342,154.132217 676.449402,154.958130 678.289185,154.966324 
	C698.881348,155.058044 719.473938,155.023697 740.535645,155.018829 
	C755.117859,155.127106 769.230835,155.239838 783.653076,155.620987 
z"/>
<path fill="#60B675" opacity="1.000000" stroke="none" 
	d="
M822.919189,122.923210 
	C818.243530,123.298355 813.567871,123.673500 808.406494,123.654404 
	C807.919189,123.007179 807.917603,122.754196 807.916016,122.501205 
	C812.716614,122.190201 817.517212,121.879189 822.655151,121.974121 
	C822.968079,122.561111 822.943665,122.742157 822.919189,122.923210 
z"/>
<path fill="#60B675" opacity="1.000000" stroke="none" 
	d="
M863.439209,124.038132 
	C860.160339,123.521248 857.313232,122.986763 854.220825,122.163658 
	C858.770325,121.965950 863.565002,122.056862 868.728516,122.700691 
	C869.085144,123.504631 869.073059,123.755653 869.060974,124.006668 
	C867.330933,124.011292 865.600952,124.015907 863.439209,124.038132 
z"/>
<path fill="#60B675" opacity="1.000000" stroke="none" 
	d="
M864.289978,139.391663 
	C865.993042,138.828888 868.098511,138.394226 870.608826,137.912445 
	C872.102234,137.849823 873.190796,137.834320 874.962097,137.807312 
	C876.120178,137.544357 876.595459,137.292892 877.070801,137.041412 
	C880.165710,137.107437 883.260559,137.173462 886.676514,137.476196 
	C879.562561,138.315201 872.127441,138.917496 864.289978,139.391663 
z"/>
<path fill="#66B94B" opacity="1.000000" stroke="none" 
	d="
M500.611694,300.314880 
	C501.372986,295.554504 505.073792,295.899323 509.157959,296.126526 
	C506.741577,297.548676 503.859802,298.925293 500.611694,300.314880 
z"/>
<path fill="#60B675" opacity="1.000000" stroke="none" 
	d="
M918.387207,137.898651 
	C921.566711,137.741440 925.140198,137.723785 928.910645,138.008209 
	C925.665527,138.219589 922.223328,138.128891 918.387207,137.898651 
z"/>
<path fill="#32AC51" opacity="1.000000" stroke="none" 
	d="
M891.402405,137.497467 
	C895.493042,137.081177 899.987793,136.783661 904.759521,136.805176 
	C900.626526,137.288223 896.216553,137.452225 891.402405,137.497467 
z"/>
<path fill="#3FAF4F" opacity="1.000000" stroke="none" 
	d="
M811.360596,148.645142 
	C812.768433,143.955276 816.726074,146.759430 820.145508,146.123169 
	C817.661316,147.007141 814.698547,147.844559 811.360596,148.645142 
z"/>
<path fill="#3FAF4F" opacity="1.000000" stroke="none" 
	d="
M803.344177,150.719177 
	C803.808655,147.362762 806.095886,147.721512 808.765747,148.724548 
	C807.232300,149.585114 805.465820,150.175598 803.344177,150.719177 
z"/>
<path fill="#60B675" opacity="1.000000" stroke="none" 
	d="
M878.682617,122.944366 
	C877.111755,123.221855 875.253479,123.308952 873.173584,123.096581 
	C874.766357,122.782730 876.580811,122.768356 878.682617,122.944366 
z"/>
<path fill="#3FAF4F" opacity="1.000000" stroke="none" 
	d="
M833.806152,142.257782 
	C835.404236,142.006134 836.806763,142.009705 838.607788,142.235703 
	C839.006409,142.458115 838.969543,142.883347 838.969543,142.883347 
	C836.578979,143.340637 834.188477,143.797928 831.384583,144.199280 
	C831.851013,143.599915 832.730774,143.056458 833.806152,142.257782 
z"/>
<path fill="#4FAE6C" opacity="1.000000" stroke="none" 
	d="
M897.646851,125.043579 
	C896.381836,125.156479 894.767822,125.138641 893.036377,124.815819 
	C894.378601,124.644836 895.838257,124.778839 897.646851,125.043579 
z"/>
<path fill="#60B675" opacity="1.000000" stroke="none" 
	d="
M803.943542,123.955444 
	C802.788818,123.832474 801.634155,123.709503 800.247925,123.326538 
	C801.186218,122.872192 802.356018,122.677826 803.767883,122.930977 
	C803.987793,123.570824 803.965698,123.763138 803.943542,123.955444 
z"/>
<path fill="#3FAF4F" opacity="1.000000" stroke="none" 
	d="
M822.354004,146.029282 
	C823.199341,145.491776 824.398926,145.002304 825.812805,144.788452 
	C824.920837,145.401825 823.814575,145.739578 822.354004,146.029282 
z"/>
<path fill="#4FAE6C" opacity="1.000000" stroke="none" 
	d="
M906.674622,126.103172 
	C905.729248,126.296082 904.474365,126.314301 903.074463,126.082069 
	C904.074707,125.863899 905.219910,125.896194 906.674622,126.103172 
z"/>
<path fill="#60B675" opacity="1.000000" stroke="none" 
	d="
M790.772095,123.729584 
	C789.850098,124.154602 788.675720,124.427742 787.257690,124.475723 
	C788.182617,124.026268 789.351196,123.801987 790.772095,123.729584 
z"/>
<path fill="#60B675" opacity="1.000000" stroke="none" 
	d="
M848.217285,141.475677 
	C849.114136,141.028000 850.340027,140.719650 851.781494,140.636337 
	C850.846924,141.112595 849.696594,141.363800 848.217285,141.475677 
z"/>
<path fill="#6FBB4B" opacity="1.000000" stroke="none" 
	d="
M460.362793,315.989777 
	C461.260010,315.342865 462.519470,314.717102 464.205200,314.142792 
	C463.329315,314.799805 462.027191,315.405365 460.362793,315.989777 
z"/>
<path fill="#49B151" opacity="1.000000" stroke="none" 
	d="
M823.337585,122.949478 
	C822.943665,122.742157 822.968079,122.561111 823.018433,122.107231 
	C824.759094,121.759041 826.473816,121.683693 828.605713,121.719940 
	C827.267273,122.212952 825.511597,122.594353 823.337585,122.949478 
z"/>
<path fill="#66B94B" opacity="1.000000" stroke="none" 
	d="
M510.340088,296.192932 
	C510.848358,295.610687 511.693787,295.019501 512.753479,294.676270 
	C512.204224,295.344147 511.440765,295.764069 510.340088,296.192932 
z"/>
<path fill="#4FAE6C" opacity="1.000000" stroke="none" 
	d="
M932.239624,130.485046 
	C931.092041,130.585983 929.687134,130.443314 928.107178,129.998932 
	C929.282227,129.878647 930.632263,130.060043 932.239624,130.485046 
z"/>
<path fill="#60B675" opacity="1.000000" stroke="none" 
	d="
M774.761780,125.724556 
	C773.875671,126.147285 772.669678,126.431831 771.244141,126.512466 
	C772.163635,126.067825 773.302795,125.827095 774.761780,125.724556 
z"/>
<path fill="#6FBB4B" opacity="1.000000" stroke="none" 
	d="
M454.336426,318.111603 
	C454.871582,317.566803 455.740509,317.035736 456.810181,316.766907 
	C456.230713,317.394531 455.450439,317.759949 454.336426,318.111603 
z"/>
<path fill="#4FAE6C" opacity="1.000000" stroke="none" 
	d="
M890.717407,124.165054 
	C889.143555,124.383972 887.300842,124.475616 885.597290,124.308311 
	C887.108948,124.051010 888.481445,124.052658 889.853943,124.054306 
	C890.052124,124.048798 890.250366,124.043289 890.717407,124.165054 
z"/>
<path fill="#60B675" opacity="1.000000" stroke="none" 
	d="
M857.222046,140.309509 
	C858.119080,139.887146 859.340027,139.599731 860.780518,139.523041 
	C859.848755,139.970673 858.697327,140.207565 857.222046,140.309509 
z"/>
<path fill="#4FAE6C" opacity="1.000000" stroke="none" 
	d="
M919.664185,128.169754 
	C918.710266,128.296432 917.441956,128.258820 916.050476,127.953522 
	C917.068176,127.792389 918.208923,127.898926 919.664185,128.169754 
z"/>
<path fill="#32AC51" opacity="1.000000" stroke="none" 
	d="
M943.489624,139.741531 
	C944.599670,139.576248 946.095459,139.555634 947.782715,139.815186 
	C946.607910,140.025620 945.241577,139.955902 943.489624,139.741531 
z"/>
<path fill="#60B675" opacity="1.000000" stroke="none" 
	d="
M782.801880,124.766556 
	C782.160217,125.141144 781.296936,125.378174 780.220947,125.397026 
	C780.865601,124.995560 781.722900,124.812271 782.801880,124.766556 
z"/>
<path fill="#60B675" opacity="1.000000" stroke="none" 
	d="
M889.538940,123.879929 
	C888.481445,124.052658 887.108948,124.051010 885.319824,124.073792 
	C884.903259,124.098213 884.831055,123.879646 884.845093,123.765633 
	C886.314026,123.669594 887.768982,123.687576 889.538940,123.879929 
z"/>
<path fill="#60B675" opacity="1.000000" stroke="none" 
	d="
M843.065552,141.037430 
	C843.589905,141.148880 844.114258,141.260330 844.799072,141.590881 
	C844.143311,142.039627 843.327148,142.269302 842.201172,142.382812 
	C841.891479,142.266663 841.932312,141.985779 842.213013,141.823608 
	C842.765503,141.527863 842.956116,141.319855 843.065552,141.037430 
z"/>
<path fill="#66B94B" opacity="1.000000" stroke="none" 
	d="
M513.642090,249.927704 
	C513.185303,250.577972 512.411987,251.272293 511.268372,251.948196 
	C511.707245,251.277115 512.516418,250.624420 513.642090,249.927704 
z"/>
<path fill="#4FAE6C" opacity="1.000000" stroke="none" 
	d="
M923.759521,128.885742 
	C923.351135,129.104996 922.720764,129.145798 922.001099,128.962494 
	C922.453674,128.728027 922.995544,128.717667 923.759521,128.885742 
z"/>
<path fill="#66B94B" opacity="1.000000" stroke="none" 
	d="
M515.286377,293.978912 
	C515.560181,293.508667 516.129944,293.049347 516.863831,292.827942 
	C516.546082,293.373901 516.064270,293.681854 515.286377,293.978912 
z"/>
<path fill="#66B94B" opacity="1.000000" stroke="none" 
	d="
M519.371277,292.182251 
	C519.630310,291.689667 520.186951,291.178986 520.914307,290.928009 
	C520.612976,291.513214 520.140930,291.838684 519.371277,292.182251 
z"/>
<path fill="#49B151" opacity="1.000000" stroke="none" 
	d="
M804.346863,123.972015 
	C803.965698,123.763138 803.987793,123.570824 804.031128,123.088852 
	C805.080994,122.683540 806.109558,122.567886 807.527100,122.476715 
	C807.917603,122.754196 807.919189,123.007179 807.942139,123.639191 
	C806.892334,124.008347 805.821289,123.998466 804.346863,123.972015 
z"/>
<path fill="#66B94B" opacity="1.000000" stroke="none" 
	d="
M510.638672,251.915558 
	C510.417999,252.424011 509.900970,252.960037 509.202820,253.272659 
	C509.461853,252.680557 509.902100,252.311844 510.638672,251.915558 
z"/>
<path fill="#49B151" opacity="1.000000" stroke="none" 
	d="
M768.586060,126.781013 
	C768.124756,127.103790 767.294128,127.367676 766.253235,127.410629 
	C766.767578,127.033836 767.492188,126.877975 768.586060,126.781013 
z"/>
<path fill="#6FBB4B" opacity="1.000000" stroke="none" 
	d="
M465.289246,314.255188 
	C465.526062,313.885468 466.128845,313.496216 467.117889,313.130859 
	C466.887817,313.515076 466.271515,313.875366 465.289246,314.255188 
z"/>
<path fill="#6FBB4B" opacity="1.000000" stroke="none" 
	d="
M474.319397,310.988251 
	C474.513306,310.661499 475.016754,310.355194 475.832214,310.052979 
	C475.639099,310.374268 475.134003,310.691498 474.319397,310.988251 
z"/>
<path fill="#568B60" opacity="1.000000" stroke="none" 
	d="
M676.581665,151.893005 
	C676.386780,152.231033 675.877136,152.561127 675.039551,152.863281 
	C675.230042,152.518585 675.748474,152.201828 676.581665,151.893005 
z"/>
<path fill="#61B84B" opacity="1.000000" stroke="none" 
	d="
M556.616028,221.751801 
	C556.495300,222.110031 556.076416,222.526428 555.340576,222.975037 
	C555.455078,222.608154 555.886475,222.209061 556.616028,221.751801 
z"/>
<path fill="#568B60" opacity="1.000000" stroke="none" 
	d="
M689.625610,146.969803 
	C689.405579,147.277420 688.870911,147.576691 688.009094,147.838821 
	C688.224976,147.521606 688.768005,147.241531 689.625610,146.969803 
z"/>
<path fill="#66B94B" opacity="1.000000" stroke="none" 
	d="
M526.307861,289.014191 
	C526.478333,288.688538 526.949646,288.365265 527.722778,288.028564 
	C527.552612,288.348938 527.080688,288.682739 526.307861,289.014191 
z"/>
<path fill="#568B60" opacity="1.000000" stroke="none" 
	d="
M692.540771,145.839371 
	C692.318542,146.182999 691.760071,146.527847 690.839661,146.842377 
	C691.053284,146.488251 691.628906,146.164429 692.540771,145.839371 
z"/>
<path fill="#4FAE6C" opacity="1.000000" stroke="none" 
	d="
M912.763550,127.039978 
	C912.719177,127.226311 912.433350,127.297890 912.072876,127.200111 
	C912.172791,126.995567 912.347473,126.960388 912.763550,127.039978 
z"/>
<path fill="#66B94B" opacity="1.000000" stroke="none" 
	d="
M516.709473,248.018921 
	C516.743347,248.241898 516.496704,248.515442 515.972656,248.849304 
	C515.939880,248.629578 516.184448,248.349533 516.709473,248.018921 
z"/>
<path fill="#60B675" opacity="1.000000" stroke="none" 
	d="
M936.234497,138.972290 
	C936.270081,138.786636 936.553162,138.704529 936.919189,138.782806 
	C936.828735,138.987427 936.655396,139.031647 936.234497,138.972290 
z"/>
<path fill="#568B60" opacity="1.000000" stroke="none" 
	d="
M686.595276,148.043427 
	C686.595215,148.289551 686.285583,148.534912 685.664673,148.788849 
	C685.664185,148.545837 685.974915,148.294235 686.595276,148.043427 
z"/>
<path fill="#32AC51" opacity="1.000000" stroke="none" 
	d="
M869.288696,123.857025 
	C869.073059,123.755653 869.085144,123.504631 869.081177,122.875664 
	C869.238342,122.491714 869.411682,122.485718 869.804993,122.618271 
	C869.855469,123.073677 869.685913,123.390533 869.288696,123.857025 
z"/>
<path fill="#66B94B" opacity="1.000000" stroke="none" 
	d="
M528.322144,287.983582 
	C528.314087,287.750031 528.619934,287.476013 529.242676,287.160400 
	C529.251648,287.393585 528.943848,287.668365 528.322144,287.983582 
z"/>
<path fill="#61B84B" opacity="1.000000" stroke="none" 
	d="
M564.350220,270.065674 
	C564.327454,269.821503 564.621277,269.522278 565.238892,269.175659 
	C565.263977,269.422394 564.965454,269.716492 564.350220,270.065674 
z"/>
<path fill="#61B84B" opacity="1.000000" stroke="none" 
	d="
M570.289917,266.941040 
	C570.276489,266.704254 570.560120,266.451172 571.135071,266.161743 
	C571.146606,266.391846 570.866699,266.658295 570.289917,266.941040 
z"/>
<path fill="#60B675" opacity="1.000000" stroke="none" 
	d="
M839.244385,142.921783 
	C838.969543,142.883347 839.006409,142.458115 839.028503,142.246185 
	C839.325745,142.090378 839.572327,142.206924 839.906372,142.554779 
	C839.854736,142.803848 839.687012,142.882034 839.244385,142.921783 
z"/>
<path fill="#568B60" opacity="1.000000" stroke="none" 
	d="
M697.607300,144.112900 
	C697.601929,144.343094 697.305420,144.569031 696.715759,144.803360 
	C696.720398,144.577393 697.018250,144.343002 697.607300,144.112900 
z"/>
<path fill="#66B94B" opacity="1.000000" stroke="none" 
	d="
M522.744873,244.106018 
	C522.771912,244.313843 522.531555,244.561722 522.034180,244.871277 
	C522.010498,244.670639 522.244019,244.408356 522.744873,244.106018 
z"/>
<path fill="#FCFDFC" opacity="1.000000" stroke="none" 
	d="
M950.698486,274.761292 
	C942.854614,279.360718 934.608765,281.025360 926.009277,281.148529 
	C918.569153,281.255096 911.126282,281.170685 903.393433,281.170685 
	C903.393433,256.925964 903.393433,233.702530 903.393433,209.729767 
	C914.233826,208.311142 925.151855,207.521790 936.178711,209.870377 
	C945.244507,211.801300 953.008972,215.650253 959.011475,223.004501 
	C968.172913,234.228928 969.546082,263.729614 950.698486,274.761292 
z"/>
<path fill="#FAFCFA" opacity="1.000000" stroke="none" 
	d="
M452.150330,285.651154 
	C438.957367,292.103119 425.967010,298.341461 412.894257,304.402100 
	C408.244598,306.557709 403.394897,308.281769 398.242432,310.290771 
	C408.677094,280.620728 419.505829,250.862778 430.334564,221.104813 
	C430.706512,221.074799 431.078491,221.044800 431.450439,221.014786 
	C438.656494,241.448685 445.862549,261.882568 453.217712,282.695129 
	C453.018066,283.838348 452.669250,284.602875 452.150330,285.651154 
z"/>
<path fill="#66B94B" opacity="1.000000" stroke="none" 
	d="
M503.755981,256.295410 
	C506.134644,261.002869 503.223206,260.182129 500.178772,259.188171 
	C501.113434,258.055634 502.282440,257.210022 503.755981,256.295410 
z"/>
<path fill="#66B94B" opacity="1.000000" stroke="none" 
	d="
M497.742920,260.103485 
	C497.758118,260.293884 497.510315,260.550201 496.994446,260.868408 
	C496.977570,260.676636 497.228729,260.423004 497.742920,260.103485 
z"/>
<path fill="#32AC51" opacity="1.000000" stroke="none" 
	d="
M876.792542,137.037109 
	C876.595459,137.292892 876.120178,137.544357 875.367676,137.756210 
	C875.565125,137.488663 876.039673,137.260727 876.792542,137.037109 
z"/>
<path fill="#3FAF4F" opacity="1.000000" stroke="none" 
	d="
M842.862061,141.096298 
	C842.956116,141.319855 842.765503,141.527863 842.283813,141.700592 
	C842.201233,141.477325 842.396118,141.282471 842.862061,141.096298 
z"/>
<path fill="#EEF4F1" opacity="1.000000" stroke="none" 
	d="
M1014.988220,149.907333 
	C1008.243652,153.931061 1001.125916,152.928055 996.767212,147.339767 
	C992.276062,141.581741 993.172119,133.743271 999.587524,128.078308 
	C1000.490112,128.457306 1000.777832,128.805069 1000.989075,129.606171 
	C1000.882629,135.376938 1000.779480,140.696045 1000.901001,146.010010 
	C1000.919250,146.809906 1001.986633,147.585815 1002.568665,148.372818 
	C1003.030823,147.622955 1003.810425,146.905869 1003.891907,146.116699 
	C1004.087463,144.223587 1003.955200,142.296631 1003.955200,140.383331 
	C1004.492859,140.117844 1005.030518,139.852356 1005.568176,139.586868 
	C1006.806152,141.005569 1007.953491,142.518356 1009.304626,143.819611 
	C1011.076843,145.526215 1013.009705,147.065994 1014.897339,148.985413 
	C1014.943481,149.497986 1014.965820,149.702652 1014.988220,149.907333 
z"/>
<path fill="#E2E9E6" opacity="1.000000" stroke="none" 
	d="
M1001.065552,129.152817 
	C1000.777832,128.805069 1000.490112,128.457306 999.897400,127.952789 
	C1005.789429,123.597694 1012.818237,124.330444 1017.428406,129.655350 
	C1022.496887,135.509766 1021.792908,143.367584 1015.310730,149.799149 
	C1014.965820,149.702652 1014.943481,149.497986 1014.886475,148.644928 
	C1013.562012,145.523102 1012.272217,143.049698 1010.982361,140.576294 
	C1011.441833,140.665359 1011.901306,140.754425 1012.360779,140.843506 
	C1013.144714,138.012802 1015.133667,134.753113 1014.327454,132.488510 
	C1013.693909,130.708786 1009.686401,129.863281 1007.030029,129.161758 
	C1005.170715,128.670761 1003.062561,129.122253 1001.065552,129.152817 
z"/>
<path fill="#294537" opacity="1.000000" stroke="none" 
	d="
M1000.989136,129.606140 
	C1003.062561,129.122253 1005.170715,128.670761 1007.030029,129.161758 
	C1009.686401,129.863281 1013.693909,130.708786 1014.327454,132.488510 
	C1015.133667,134.753113 1013.144714,138.012802 1012.360779,140.843506 
	C1011.901306,140.754425 1011.441833,140.665359 1010.982361,140.576294 
	C1012.272217,143.049698 1013.562012,145.523102 1014.862671,148.337006 
	C1013.009705,147.065994 1011.076843,145.526215 1009.304626,143.819611 
	C1007.953491,142.518356 1006.806152,141.005569 1005.568176,139.586868 
	C1005.030518,139.852356 1004.492859,140.117844 1003.955200,140.383331 
	C1003.955200,142.296631 1004.087463,144.223587 1003.891907,146.116699 
	C1003.810425,146.905869 1003.030823,147.622955 1002.568665,148.372818 
	C1001.986633,147.585815 1000.919250,146.809906 1000.901001,146.010010 
	C1000.779480,140.696045 1000.882629,135.376938 1000.989136,129.606140 
M1011.819336,134.404816 
	C1010.230225,130.398514 1007.090515,132.129730 1004.198242,131.993759 
	C1004.198242,133.959183 1004.198242,135.526581 1004.198242,138.582184 
	C1007.196594,137.238358 1009.470032,136.219452 1011.819336,134.404816 
z"/>
<path fill="#E2E9E6" opacity="1.000000" stroke="none" 
	d="
M1011.781372,134.802673 
	C1009.470032,136.219452 1007.196594,137.238358 1004.198242,138.582184 
	C1004.198242,135.526581 1004.198242,133.959183 1004.198242,131.993759 
	C1007.090515,132.129730 1010.230225,130.398514 1011.781372,134.802673 
z"/>
</svg>